<?xml version="1.0" standalone="no"?>
<!DOCTYPE svg PUBLIC "-//W3C//DTD SVG 20010904//EN"
 "http://www.w3.org/TR/2001/REC-SVG-20010904/DTD/svg10.dtd">
<svg version="1.0" xmlns="http://www.w3.org/2000/svg"
 width="512.000000pt" height="512.000000pt" viewBox="0 0 512.000000 512.000000"
 preserveAspectRatio="xMidYMid meet">
<metadata>
Created by potrace 1.11, written by Peter Selinger 2001-2013
</metadata>
<g transform="translate(0.000000,512.000000) scale(0.100000,-0.100000)"
fill="#000000" stroke="none">
<path d="M2370 4794 c-14 -2 -65 -9 -115 -15 -208 -26 -448 -101 -670 -209
-240 -117 -435 -259 -625 -456 -323 -335 -518 -724 -602 -1204 -29 -167 -31
-498 -5 -667 45 -282 127 -527 254 -758 485 -879 1482 -1329 2458 -1110 636
143 1168 545 1488 1127 114 206 209 501 248 768 19 130 16 472 -4 610 -76 500
-305 944 -666 1293 -363 350 -804 556 -1321 617 -79 9 -383 12 -440 4z m584
-93 c506 -90 962 -356 1294 -754 490 -587 633 -1397 375 -2119 -45 -127 -160
-356 -232 -463 -364 -544 -949 -899 -1590 -964 -573 -59 -1136 107 -1591 470
-241 192 -457 464 -595 751 -291 605 -287 1297 10 1896 84 168 147 269 251
397 83 103 249 270 344 346 277 221 633 382 970 438 182 30 175 29 420 26 176
-2 251 -7 344 -24z"/>
<path d="M2345 4205 c-506 -83 -920 -358 -1179 -783 -431 -707 -279 -1623 355
-2154 521 -436 1267 -509 1854 -182 153 86 249 158 375 284 140 139 229 262
315 435 121 243 164 418 172 700 5 166 2 206 -17 320 -62 368 -229 680 -503
941 -225 215 -497 357 -812 424 -133 28 -429 36 -560 15z m459 -50 c211 -28
487 -131 658 -246 360 -243 607 -607 700 -1033 20 -88 22 -130 22 -326 0 -211
-2 -232 -28 -345 -74 -319 -215 -575 -436 -795 -138 -138 -264 -229 -425 -309
-515 -254 -1111 -219 -1591 94 -372 242 -627 628 -711 1078 -27 145 -24 439 5
582 92 445 335 809 704 1052 324 214 706 300 1102 248z"/>
<path d="M2390 4084 c-154 -29 -208 -41 -285 -66 -171 -56 -316 -135 -470
-253 -80 -63 -210 -192 -253 -252 l-23 -33 1221 0 c883 0 1221 3 1218 11 -7
21 -123 144 -204 218 -189 170 -424 290 -691 352 -69 16 -131 21 -288 24 -110
2 -211 1 -225 -1z"/>
<path d="M1595 3125 c-221 -48 -373 -194 -430 -410 -19 -76 -20 -243 0 -318
48 -185 169 -320 343 -385 91 -33 276 -42 372 -18 255 65 410 280 410 568 l0
58 -280 0 -280 0 0 -110 0 -110 116 0 116 0 -7 -32 c-12 -52 -47 -95 -99 -124
-41 -23 -62 -27 -120 -27 -43 0 -87 7 -111 17 -57 24 -119 89 -152 160 -24 54
-28 73 -27 156 0 124 26 193 98 266 41 40 63 54 105 64 115 27 227 -11 281
-97 16 -25 31 -50 32 -54 3 -8 252 92 266 106 9 9 -80 134 -123 174 -119 109
-326 157 -510 116z"/>
<path d="M3254 3116 c-108 -21 -215 -78 -298 -161 -117 -115 -166 -235 -166
-402 0 -165 49 -285 164 -399 161 -158 370 -209 589 -144 l77 23 0 164 0 165
-31 -27 c-61 -51 -109 -68 -199 -73 -81 -4 -88 -2 -150 30 -77 40 -123 95
-146 175 -41 140 21 287 149 356 34 18 58 22 132 22 99 0 151 -19 213 -76 l32
-30 0 169 0 170 -80 22 c-104 28 -197 33 -286 16z"/>
<path d="M2504 2176 c-59 -27 -69 -115 -17 -156 62 -48 153 -5 153 72 0 71
-70 114 -136 84z"/>
<path d="M3845 2181 c-93 -39 -66 -181 34 -181 44 0 74 19 91 59 18 44 -1 95
-44 115 -37 18 -51 19 -81 7z"/>
<path d="M1360 1623 c0 -19 133 -164 210 -230 166 -143 351 -248 550 -313 136
-43 243 -61 420 -67 129 -4 177 -2 285 16 332 55 602 196 848 443 70 70 127
135 127 143 0 13 -146 15 -1220 15 -671 0 -1220 -3 -1220 -7z"/>
</g>
</svg>
