<?xml version="1.0" standalone="no"?>
<!DOCTYPE svg PUBLIC "-//W3C//DTD SVG 20010904//EN"
 "http://www.w3.org/TR/2001/REC-SVG-20010904/DTD/svg10.dtd">
<svg version="1.0" xmlns="http://www.w3.org/2000/svg"
 width="512.000000pt" height="512.000000pt" viewBox="0 0 512.000000 512.000000"
 preserveAspectRatio="xMidYMid meet">
<metadata>
Created by potrace 1.11, written by Peter Selinger 2001-2013
</metadata>
<g transform="translate(0.000000,512.000000) scale(0.100000,-0.100000)"
fill="#000000" stroke="none">
<path d="M1186 3655 c-3 -8 -10 -15 -16 -15 -6 0 -9 4 -6 8 3 5 -1 9 -9 9 -8
0 -12 -4 -9 -8 2 -5 -9 -6 -26 -4 -16 2 -32 -1 -36 -6 -4 -6 -11 -6 -20 2 -11
9 -14 9 -14 0 0 -7 -4 -9 -10 -6 -5 3 -10 1 -10 -4 0 -6 -5 -11 -11 -11 -5 0
-7 5 -4 10 3 6 1 10 -4 10 -6 0 -11 -4 -11 -9 0 -6 -10 -8 -22 -6 -12 3 -31
-3 -42 -13 -11 -9 -16 -11 -12 -4 4 6 2 12 -3 12 -6 0 -11 -5 -11 -11 0 -6 -7
-9 -15 -6 -8 4 -17 2 -21 -4 -3 -6 -12 -8 -20 -5 -8 3 -14 1 -14 -5 0 -6 -7
-8 -15 -5 -9 3 -18 -1 -21 -9 -4 -8 -10 -15 -16 -15 -5 0 -7 4 -4 9 4 5 -5 4
-18 -2 -13 -7 -22 -15 -19 -20 3 -5 -3 -7 -13 -5 -11 2 -18 -2 -17 -9 2 -7 -4
-10 -12 -7 -8 4 -15 1 -15 -5 0 -6 -7 -8 -17 -4 -10 4 -14 2 -10 -4 8 -12 -20
-26 -34 -17 -5 3 -8 2 -7 -3 2 -4 0 -8 -4 -8 -4 0 -14 -9 -23 -20 -9 -11 -13
-13 -9 -5 7 15 1 10 -87 -75 -26 -25 -52 -45 -58 -45 -7 0 -9 -4 -6 -10 3 -5
1 -10 -5 -10 -6 0 -9 -4 -6 -9 4 -5 -4 -7 -16 -5 -13 2 -17 1 -9 -2 11 -5 9
-11 -10 -26 -13 -11 -17 -16 -9 -12 8 4 5 -3 -7 -15 -13 -12 -23 -26 -23 -32
0 -6 -4 -8 -9 -4 -5 3 -11 -5 -13 -17 -2 -13 -9 -22 -16 -21 -6 2 -11 0 -11
-5 3 -19 -2 -33 -10 -27 -5 3 -13 0 -17 -6 -4 -7 -3 -9 4 -5 6 3 13 2 17 -4 3
-5 -1 -10 -10 -10 -9 0 -13 -4 -10 -10 3 -5 1 -10 -4 -10 -6 0 -11 -9 -11 -20
0 -11 -5 -20 -11 -20 -5 0 -8 -4 -4 -9 3 -5 1 -12 -5 -16 -6 -4 -8 -11 -5 -16
4 -5 1 -9 -5 -9 -6 0 -8 -4 -5 -10 3 -5 2 -10 -4 -10 -5 0 -8 -11 -7 -25 2
-14 -3 -30 -10 -36 -8 -6 -14 -20 -14 -30 0 -10 -5 -21 -10 -24 -8 -5 -7 -12
2 -23 10 -12 10 -14 1 -8 -9 5 -13 -1 -13 -18 0 -14 -6 -26 -12 -26 -9 0 -8
-4 2 -10 13 -9 13 -10 0 -10 -13 0 -13 -1 0 -10 8 -5 10 -10 4 -10 -7 0 -14
-9 -17 -20 -3 -11 -1 -18 3 -15 5 3 7 -2 6 -11 -1 -8 -9 -20 -17 -25 -11 -7
-11 -9 0 -9 11 0 11 -3 0 -17 -12 -14 -12 -16 0 -8 10 6 12 4 6 -5 -5 -8 -10
-37 -11 -64 -1 -28 -3 -51 -4 -51 -1 0 -3 -10 -4 -22 -1 -12 1 -20 6 -17 10 7
10 1 -2 -30 -6 -16 -6 -27 0 -31 6 -4 10 -11 10 -16 0 -6 -4 -8 -8 -5 -4 2 -8
-4 -8 -14 0 -10 4 -16 8 -13 5 2 7 -16 5 -41 -2 -25 1 -46 5 -46 5 0 4 -10 -3
-21 -8 -16 -8 -20 1 -14 8 5 11 1 9 -11 -2 -11 0 -25 5 -33 7 -10 5 -12 -5 -7
-8 4 -5 0 5 -8 20 -16 20 -16 0 -17 -10 0 -13 -3 -6 -6 6 -2 10 -9 6 -14 -3
-5 1 -9 8 -9 9 0 9 -3 -2 -10 -10 -6 -11 -10 -2 -10 6 0 12 -11 12 -25 0 -14
6 -25 13 -25 8 0 7 -4 -3 -10 -10 -6 -11 -10 -2 -10 6 0 12 -9 12 -20 0 -12 8
-33 18 -47 13 -21 14 -25 2 -18 -12 7 -13 6 -3 -7 7 -8 10 -18 6 -21 -3 -4 -2
-7 4 -7 6 0 14 -7 17 -16 4 -10 2 -13 -7 -8 -9 6 -9 5 0 -7 6 -8 12 -18 13
-24 1 -5 4 -12 7 -15 4 -3 3 1 -2 9 -6 10 -4 12 4 7 7 -5 10 -14 7 -21 -3 -8
2 -19 10 -26 8 -6 12 -14 9 -17 -2 -3 3 -11 13 -19 9 -8 11 -12 5 -8 -9 4 -11
1 -7 -9 3 -9 10 -13 15 -10 5 3 9 -4 9 -15 0 -12 9 -26 20 -33 11 -7 20 -17
20 -22 0 -6 12 -23 28 -40 16 -18 19 -24 7 -16 -15 11 -14 8 4 -12 13 -15 28
-25 34 -21 6 3 7 1 3 -5 -4 -7 -2 -12 4 -12 7 0 10 -6 7 -14 -4 -10 1 -12 16
-9 16 4 18 2 8 -5 -11 -8 -10 -11 7 -16 11 -4 23 -14 26 -22 3 -8 10 -12 16
-9 6 3 7 0 4 -9 -4 -11 0 -14 15 -11 11 2 20 1 20 -3 -3 -17 2 -32 9 -31 15 2
52 -14 52 -22 0 -5 7 -9 15 -9 8 0 15 -4 15 -10 0 -5 7 -10 15 -10 8 0 15 -5
15 -11 0 -5 5 -7 10 -4 6 3 10 1 10 -5 0 -6 5 -8 10 -5 6 3 10 1 10 -5 0 -6 4
-9 9 -5 5 3 15 0 23 -7 7 -7 19 -14 26 -16 6 -1 18 -3 24 -5 7 -1 16 -5 19
-10 3 -4 20 -9 37 -10 18 -1 32 -6 32 -10 0 -5 4 -6 9 -2 5 3 12 1 16 -4 3 -5
14 -8 25 -6 11 2 20 0 20 -4 0 -4 13 -7 30 -6 16 1 27 -2 24 -7 -3 -4 5 -8 18
-8 72 1 155 -6 152 -11 -5 -9 22 -19 30 -11 11 10 48 13 41 2 -4 -7 2 -7 19 0
15 5 28 6 31 0 3 -6 16 -5 31 0 14 6 23 6 20 2 -5 -9 59 -6 74 3 6 3 10 1 10
-6 0 -7 8 -5 22 7 12 10 18 14 15 8 -4 -7 2 -14 14 -17 17 -5 18 -3 7 10 -12
14 -11 15 9 5 15 -8 24 -9 28 -2 4 6 16 8 27 4 13 -4 24 -1 29 7 5 8 9 9 9 3
0 -14 61 -7 89 10 10 6 12 5 7 -2 -4 -7 -3 -12 3 -12 5 0 13 5 16 11 4 6 13 8
20 5 7 -2 18 1 25 7 10 9 11 9 5 -3 -7 -12 -6 -13 7 -3 8 7 18 10 21 6 4 -3 7
-1 7 5 0 7 10 12 23 12 45 0 67 5 67 13 0 4 5 5 10 2 6 -3 10 -2 10 4 0 5 9 8
19 6 11 -2 22 2 24 9 3 8 17 12 31 11 14 -2 24 1 20 6 -3 5 4 9 15 9 12 0 21
4 21 9 0 5 11 8 25 7 15 -2 22 1 18 7 -4 6 0 8 10 4 10 -4 16 -2 14 5 -1 7 4
13 11 14 6 1 17 2 23 3 5 0 7 6 4 12 -4 6 0 9 11 7 12 -2 18 2 16 11 -3 12 0
12 12 1 13 -10 16 -10 16 0 0 8 3 11 6 7 3 -3 17 6 30 20 15 16 24 21 24 12 1
-10 4 -9 14 4 7 9 18 17 25 17 6 0 11 5 11 11 0 5 4 8 9 4 6 -3 14 2 19 10 4
9 18 17 29 18 12 0 21 5 20 10 -1 5 9 16 23 25 20 14 23 14 16 2 -4 -8 0 -6 9
5 9 11 21 19 26 17 12 -3 11 5 -2 30 -6 12 -7 18 -1 14 5 -3 13 1 16 10 4 11
2 15 -8 11 -10 -4 -13 -1 -9 8 3 8 10 12 17 8 8 -5 8 -3 1 8 -12 16 -13 39 -2
56 4 7 0 16 -10 22 -17 10 -17 10 2 11 17 0 17 2 5 10 -9 6 -11 13 -5 18 17
12 15 44 -2 37 -12 -4 -13 -2 -5 8 9 10 8 17 -1 27 -8 8 -8 11 -1 7 7 -4 15 0
18 9 4 11 2 15 -8 11 -10 -4 -13 -1 -9 8 3 8 10 12 16 8 6 -4 7 -1 2 7 -11 18
-17 102 -7 96 5 -3 9 2 9 10 0 9 -6 13 -15 9 -12 -4 -13 -3 -2 10 7 8 9 15 5
15 -4 0 -1 8 6 17 10 11 10 14 2 9 -16 -9 -16 -5 -3 29 9 23 8 26 -4 22 -10
-4 -13 -1 -9 8 3 8 10 12 17 8 8 -5 8 -3 1 8 -12 16 -13 39 -2 56 4 7 0 16
-10 22 -17 10 -17 10 2 11 17 0 17 2 5 10 -8 5 -11 10 -6 10 5 0 3 7 -4 16 -8
8 -9 14 -4 12 5 -2 9 2 9 7 0 6 -4 9 -10 7 -5 -1 -2 4 7 11 15 12 15 14 0 25
-9 7 -12 10 -6 7 7 -2 15 2 18 11 4 11 2 15 -8 11 -10 -4 -13 -1 -9 8 3 8 10
12 16 8 6 -4 7 -1 2 7 -11 18 -17 102 -7 96 5 -3 9 2 9 10 0 9 -6 13 -15 9
-12 -4 -13 -3 -2 10 7 8 9 15 4 15 -5 0 -4 4 3 8 8 5 3 11 -13 19 -13 6 -24 7
-24 2 0 -6 -8 -5 -20 1 -15 8 -20 8 -20 -1 0 -8 -4 -8 -13 -1 -8 7 -18 7 -27
2 -9 -5 -19 -5 -27 2 -9 7 -13 7 -13 -2 0 -9 -4 -9 -13 -2 -8 7 -18 7 -27 2
-9 -5 -19 -5 -27 2 -9 7 -13 7 -13 -2 0 -9 -4 -9 -13 -2 -8 7 -18 7 -27 2 -9
-5 -19 -5 -27 2 -9 7 -13 7 -13 -2 0 -9 -4 -9 -13 -2 -8 7 -18 7 -27 2 -9 -5
-19 -5 -27 2 -9 7 -13 7 -13 -2 0 -9 -4 -9 -13 -2 -8 7 -18 7 -27 2 -9 -5 -19
-5 -27 2 -9 7 -13 7 -13 -2 0 -9 -4 -9 -13 -2 -8 7 -18 7 -27 2 -9 -5 -19 -5
-27 2 -9 7 -13 7 -13 -2 0 -9 -4 -9 -13 -2 -8 7 -18 7 -27 2 -9 -5 -19 -5 -27
2 -9 7 -13 7 -13 -2 0 -9 -4 -9 -13 -2 -8 7 -18 7 -27 2 -9 -5 -19 -5 -27 2
-9 7 -13 7 -13 -2 0 -9 -4 -9 -13 -2 -8 7 -18 7 -27 2 -9 -5 -19 -5 -27 2 -9
7 -13 7 -13 -2 0 -9 -4 -9 -13 -2 -8 7 -18 7 -27 2 -9 -5 -19 -5 -27 2 -9 7
-13 7 -13 -2 0 -9 -4 -9 -13 -2 -8 7 -18 7 -27 2 -9 -5 -19 -5 -27 2 -9 7 -13
7 -13 -2 0 -9 -4 -9 -13 -2 -8 7 -18 7 -27 2 -9 -5 -19 -5 -27 2 -9 7 -13 7
-13 -1 0 -7 -8 -8 -27 0 -15 6 -24 7 -20 3 4 -4 1 -14 -6 -22 -10 -13 -9 -15
8 -9 18 7 19 6 3 -6 -10 -8 -15 -16 -13 -19 11 -10 14 -48 4 -48 -6 0 -6 -7 1
-19 12 -24 13 -34 2 -27 -5 3 -9 -1 -9 -9 0 -8 3 -12 6 -11 3 2 6 -22 6 -55 0
-32 -4 -59 -9 -59 -6 0 -1 -6 10 -14 18 -14 18 -15 2 -21 -10 -4 -15 -11 -12
-16 10 -17 15 -61 6 -55 -5 3 -9 -1 -9 -9 0 -8 4 -12 9 -9 8 5 4 -26 -7 -63
-2 -7 1 -15 7 -19 7 -4 8 -3 4 4 -4 7 -3 12 3 12 5 0 13 -5 16 -10 4 -6 12 -7
20 -3 8 5 48 6 89 3 42 -3 76 -1 76 4 0 5 6 4 13 -2 7 -6 18 -8 24 -4 6 4 45
5 87 2 42 -3 76 -2 76 1 0 3 7 6 15 6 8 0 15 -4 15 -8 0 -4 8 -6 18 -4 12 2
18 -3 19 -16 1 -12 -3 -17 -10 -13 -8 5 -8 3 1 -7 15 -16 16 -33 1 -23 -6 3
-3 -5 6 -20 17 -25 17 -26 -1 -19 -17 6 -17 5 -5 -10 7 -9 10 -17 6 -17 -4 0
-1 -8 6 -17 8 -10 9 -14 2 -10 -6 4 -14 3 -18 -3 -3 -5 -1 -10 6 -10 8 0 7 -5
-2 -17 -10 -11 -10 -14 -1 -9 6 4 12 3 12 -3 0 -5 -9 -13 -20 -16 -11 -4 -18
-10 -15 -15 3 -4 -2 -11 -11 -14 -9 -4 -13 -2 -8 5 3 6 -6 3 -22 -7 -15 -11
-30 -17 -32 -16 -2 2 -7 0 -10 -4 -4 -4 0 -4 8 1 11 6 12 5 4 -4 -6 -7 -21
-13 -32 -14 -12 0 -24 -8 -27 -16 -5 -13 -7 -13 -15 -1 -8 12 -10 12 -16 -3
-3 -9 -10 -17 -16 -17 -5 0 -6 6 -3 13 4 6 1 5 -7 -4 -7 -9 -19 -14 -27 -11
-8 2 -11 0 -8 -5 4 -6 -7 -9 -23 -8 -17 1 -30 -2 -30 -6 0 -5 -7 -5 -17 -2
-10 4 -14 2 -9 -5 4 -7 -2 -9 -18 -6 -14 2 -28 -1 -32 -7 -5 -8 -8 -8 -13 0
-5 7 -17 8 -38 2 -21 -6 -35 -5 -42 2 -6 6 -11 7 -11 1 0 -5 -11 -9 -25 -9
-14 0 -25 3 -25 6 0 3 -22 5 -49 4 -28 -1 -50 1 -49 4 2 19 -4 22 -17 11 -10
-9 -15 -9 -15 -1 0 6 -7 11 -16 11 -9 0 -12 5 -8 12 4 7 3 8 -5 4 -16 -10 -53
3 -45 16 4 6 2 8 -4 4 -6 -3 -13 -2 -17 4 -4 6 -11 8 -16 5 -5 -4 -9 -1 -9 4
0 6 -7 11 -16 11 -8 0 -12 5 -9 10 6 10 -9 15 -30 10 -5 -1 -7 1 -3 5 3 4 -7
19 -23 34 -16 16 -29 36 -29 45 0 10 -4 14 -10 11 -5 -3 -10 3 -10 15 0 12 -4
19 -9 15 -5 -3 -12 -1 -16 5 -3 5 2 10 12 10 15 0 15 2 3 9 -8 6 -17 8 -20 6
-3 -2 -6 8 -7 22 0 14 -7 29 -15 34 -10 6 -10 9 0 9 6 0 12 5 12 11 0 5 -4 7
-10 4 -5 -3 -10 2 -10 12 0 11 -6 25 -12 32 -10 11 -10 13 0 7 6 -4 12 -2 12
3 0 6 -4 11 -8 11 -9 0 -10 3 -13 60 -1 19 -7 38 -13 42 -7 5 -6 8 3 8 11 0
10 4 -5 16 -10 8 -14 13 -7 10 6 -4 14 -2 18 4 3 5 1 10 -6 10 -10 0 -10 3 -2
11 12 12 6 42 -7 34 -11 -7 -6 22 5 32 4 4 5 2 0 -6 -6 -10 -4 -12 4 -7 9 6 8
12 -4 26 -15 17 -15 19 2 30 16 10 15 11 -7 6 -21 -4 -22 -3 -10 7 16 13 19
44 7 65 -5 8 -2 12 8 12 9 0 13 5 10 10 -4 6 -12 7 -18 4 -9 -5 -9 -4 0 6 6 7
9 19 6 27 -3 8 0 19 8 24 12 7 12 9 -1 10 -10 0 -8 3 5 9 18 8 18 9 2 9 -15 1
-16 4 -7 22 7 11 9 27 6 35 -3 8 0 14 6 14 6 0 5 6 -3 17 -8 10 -9 14 -2 10 6
-4 14 -3 18 3 3 5 1 10 -5 10 -6 0 -8 5 -5 10 4 6 12 7 18 3 7 -4 6 0 -2 10
-8 10 -9 17 -3 17 6 0 9 9 7 20 -2 11 1 23 7 26 7 5 8 2 3 -6 -5 -9 -4 -11 4
-6 9 6 9 11 1 21 -8 9 -6 14 6 19 9 3 14 12 11 19 -5 15 18 39 28 29 4 -4 2 4
-5 17 -8 15 -8 21 -1 17 6 -4 11 0 11 9 0 9 4 14 9 10 10 -5 37 33 34 46 -1 4
7 15 19 25 12 11 18 13 14 7 -13 -23 4 -14 39 21 20 21 36 30 39 23 3 -8 5 -8
5 1 1 7 6 10 11 7 6 -3 10 -1 10 4 0 6 7 11 15 11 8 0 15 4 15 10 0 5 6 7 14
4 8 -3 17 -1 20 5 4 6 13 8 21 4 8 -3 15 -1 15 4 0 4 17 8 38 8 20 -1 42 3 49
8 7 5 18 5 24 1 19 -11 79 -12 79 0 0 5 10 1 22 -10 12 -10 18 -13 14 -6 -9
15 10 16 19 1 4 -6 13 -8 21 -5 7 3 16 1 19 -5 4 -5 10 -7 15 -4 5 3 15 -1 23
-9 8 -8 17 -12 21 -9 3 4 6 -2 6 -12 0 -14 3 -16 11 -8 13 13 49 -13 49 -37 0
-12 2 -12 9 -2 6 10 13 4 25 -22 9 -20 19 -36 22 -36 3 0 2 6 -1 13 -4 6 1 3
9 -7 9 -11 16 -28 16 -38 0 -10 6 -18 13 -18 8 0 13 -9 12 -22 -3 -34 14 -52
33 -36 13 10 14 10 8 1 -4 -7 -2 -13 3 -13 6 0 11 4 11 10 0 5 13 8 30 6 16
-2 32 -1 35 2 3 3 14 7 25 9 32 5 65 11 70 14 3 1 10 3 15 4 6 2 12 3 15 4 7
3 89 12 118 14 12 1 22 6 22 11 0 5 3 6 7 3 3 -4 13 -1 21 6 13 10 14 9 7 -2
-5 -10 -4 -12 3 -7 13 8 41 15 91 22 19 2 42 10 50 17 12 9 13 9 7 0 -4 -8 -1
-13 9 -13 10 0 13 5 9 12 -5 8 -2 9 9 5 9 -3 19 -1 23 5 4 6 9 7 13 0 11 -17
51 5 51 28 0 12 -4 18 -10 15 -6 -4 -7 1 -3 10 3 10 0 21 -8 26 -12 7 -12 9 1
9 9 0 11 3 5 8 -15 10 -49 66 -36 58 6 -4 11 -2 11 3 0 6 -5 11 -11 11 -5 0
-7 5 -4 10 3 6 1 10 -5 10 -6 0 -8 5 -5 10 3 6 1 10 -5 10 -7 0 -9 7 -6 16 3
8 2 12 -4 9 -9 -6 -14 8 -11 28 1 5 -4 5 -10 1 -9 -5 -10 -2 -6 9 4 12 2 14
-10 10 -11 -4 -14 -3 -9 6 5 7 0 18 -10 27 -11 9 -13 12 -5 8 9 -5 12 -3 7 4
-4 7 -14 12 -22 12 -8 0 -13 3 -13 8 3 17 -2 35 -7 29 -9 -9 -45 33 -38 45 3
4 2 7 -3 6 -4 -2 -18 6 -30 17 -46 42 -51 45 -56 32 -3 -7 -6 -2 -6 11 -1 15
-7 22 -21 22 -11 0 -20 5 -20 10 0 6 -9 10 -21 10 -13 0 -18 4 -13 12 5 8 2 9
-10 5 -13 -5 -17 -3 -13 6 4 10 -2 13 -19 9 -14 -2 -24 0 -24 7 0 7 -4 9 -10
6 -5 -3 -10 -1 -10 6 0 7 -3 9 -7 6 -3 -4 -17 0 -31 9 -17 11 -22 12 -16 3 6
-11 5 -12 -7 -2 -9 7 -26 15 -40 17 -13 3 -26 5 -29 6 -3 1 -15 1 -27 0 -13
-1 -23 4 -23 10 0 6 -5 8 -10 5 -6 -4 -18 -1 -27 7 -12 9 -15 9 -9 1 4 -7 3
-13 -3 -13 -5 0 -12 4 -15 8 -2 4 -17 7 -33 6 -15 0 -31 4 -35 10 -5 8 -8 7
-8 -1 0 -7 -5 -13 -11 -13 -5 0 -8 3 -6 8 8 11 -67 8 -75 -3 -5 -6 -8 -6 -8 1
0 7 -11 14 -25 16 -13 3 -22 2 -19 -3 4 -7 -38 -4 -88 6 -10 2 -18 -1 -18 -6
0 -6 -7 -6 -19 0 -10 6 -21 8 -25 4 -8 -8 -84 -8 -93 0 -3 4 -15 -1 -26 -10
-11 -10 -17 -13 -14 -6 4 6 3 14 -2 17 -5 3 -11 -1 -15 -9z"/>
<path d="M3844 3662 c5 -8 -1 -12 -16 -11 -25 0 -113 -8 -139 -13 -10 -2 -24
-10 -32 -16 -10 -8 -17 -9 -21 -3 -7 11 -34 8 -63 -7 -10 -5 -23 -7 -30 -5 -6
2 -14 0 -17 -6 -4 -6 -14 -7 -23 -4 -12 5 -14 3 -8 -7 6 -10 1 -12 -23 -8 -17
2 -29 2 -27 -2 2 -3 -5 -12 -17 -19 -11 -7 -17 -8 -14 -2 11 17 -27 0 -41 -18
-6 -9 -15 -13 -18 -9 -4 4 -14 0 -22 -8 -8 -8 -19 -11 -25 -8 -7 4 -8 2 -4 -4
4 -7 2 -12 -3 -12 -22 0 -26 -2 -34 -16 -5 -8 -12 -12 -17 -9 -4 3 -26 -13
-48 -34 -22 -22 -43 -37 -46 -34 -3 4 -6 -2 -6 -12 0 -10 -3 -15 -7 -12 -3 4
-16 -5 -29 -18 -13 -14 -29 -25 -36 -25 -10 0 -10 -2 1 -9 11 -7 9 -10 -8 -16
-14 -4 -20 -12 -17 -21 3 -8 0 -13 -7 -11 -7 1 -11 -4 -9 -10 1 -7 -3 -13 -9
-13 -5 0 -7 -6 -3 -12 5 -8 2 -8 -10 1 -9 8 -16 10 -15 5 5 -16 -37 -95 -46
-87 -4 5 -5 -2 -2 -15 3 -12 1 -20 -4 -16 -8 5 -13 -10 -10 -30 1 -5 -6 -6
-15 -2 -14 5 -15 4 -4 -9 10 -12 10 -15 0 -15 -7 0 -10 -7 -6 -16 5 -13 4 -14
-7 -5 -12 9 -13 7 -9 -14 2 -14 0 -25 -7 -25 -6 0 -8 -7 -4 -17 4 -10 2 -14
-5 -9 -7 4 -10 -1 -7 -14 2 -11 0 -20 -5 -20 -5 0 -6 -7 -3 -17 5 -12 3 -14
-8 -8 -11 7 -11 5 1 -10 11 -14 12 -17 1 -10 -11 6 -13 1 -9 -23 2 -17 1 -29
-3 -26 -4 2 -10 0 -14 -6 -3 -5 0 -10 7 -10 9 0 9 -3 -2 -10 -8 -5 -10 -10 -5
-10 6 0 3 -5 -5 -10 -10 -6 -11 -10 -2 -10 6 0 12 -5 12 -11 0 -5 -4 -7 -10
-4 -14 9 -12 -8 3 -24 10 -11 10 -13 0 -7 -7 4 -13 4 -14 -1 0 -4 -2 -20 -4
-35 -2 -17 1 -28 8 -28 7 -1 1 -8 -13 -16 l-25 -15 25 5 c22 4 23 4 8 -8 -10
-7 -15 -16 -11 -20 4 -3 7 -17 8 -30 0 -21 -2 -23 -14 -13 -12 10 -13 9 -4 -8
6 -11 8 -26 6 -33 -3 -7 1 -19 7 -28 11 -12 10 -13 -3 -8 -16 6 -18 -10 -4
-33 5 -8 3 -13 -5 -13 -9 0 -9 -3 2 -10 13 -9 13 -10 0 -10 -13 0 -13 -1 0
-10 13 -9 13 -10 0 -10 -11 0 -12 -2 -3 -8 13 -8 12 -29 -1 -51 -7 -10 -6 -12
4 -6 8 5 11 3 8 -6 -3 -8 -1 -25 4 -38 7 -20 6 -22 -9 -17 -14 6 -14 4 3 -15
11 -14 13 -19 4 -14 -12 7 -13 6 -3 -6 10 -12 10 -18 0 -29 -10 -10 -9 -11 2
-5 11 6 13 3 9 -13 -4 -13 -1 -22 5 -22 7 0 5 -5 -3 -10 -13 -9 -7 -14 12 -11
10 1 -3 -32 -16 -42 -7 -5 -3 -6 8 -3 13 5 17 2 13 -8 -3 -8 -1 -17 6 -20 9
-3 9 -5 0 -5 -7 -1 -10 -8 -7 -16 4 -8 9 -13 13 -11 4 3 6 -8 5 -22 0 -15 4
-30 10 -34 7 -5 7 -8 -2 -8 -10 0 -9 -4 2 -16 9 -8 14 -20 11 -25 -4 -5 0 -9
7 -9 9 0 9 -3 -2 -10 -13 -8 -13 -10 2 -10 10 0 15 -7 14 -17 -2 -10 4 -24 13
-31 9 -8 10 -11 3 -7 -8 4 -6 -6 5 -28 10 -19 22 -32 27 -29 5 3 6 0 2 -7 -5
-7 0 -19 10 -27 11 -9 12 -12 4 -8 -13 7 -13 5 -1 -9 7 -9 17 -15 21 -12 5 3
6 -5 2 -17 -3 -14 -1 -19 6 -14 6 3 13 -3 17 -14 3 -11 11 -20 16 -20 6 0 8
-4 5 -8 -3 -5 4 -16 15 -25 11 -10 17 -22 14 -27 -3 -5 4 -11 14 -15 11 -3 23
-15 26 -26 4 -10 11 -19 16 -19 6 0 8 -4 4 -9 -3 -6 4 -8 16 -6 16 3 18 1 10
-9 -9 -10 -8 -15 5 -20 9 -3 20 -4 25 -1 5 4 6 -1 3 -9 -6 -15 28 -40 40 -29
6 6 10 -12 7 -30 -1 -5 3 -6 8 -3 5 4 14 -2 20 -11 6 -11 11 -13 11 -5 0 17
30 -11 30 -28 0 -6 4 -8 10 -5 5 3 20 -1 33 -10 13 -8 27 -12 30 -8 4 3 7 1 7
-5 0 -10 29 -24 41 -19 4 1 17 -7 30 -18 13 -12 19 -14 14 -5 -4 8 3 5 17 -8
18 -16 28 -20 33 -12 5 8 11 8 21 -1 8 -6 14 -8 14 -4 0 4 6 2 14 -4 11 -9 15
-9 19 1 4 9 6 8 6 -3 1 -12 8 -15 26 -11 17 3 25 0 25 -9 1 -9 6 -7 17 6 14
18 15 18 9 1 -5 -15 -2 -17 14 -13 11 3 20 2 20 -2 0 -3 17 -6 37 -5 20 1 46
-1 57 -6 12 -4 30 -4 41 0 11 4 25 4 30 0 6 -5 13 -9 18 -9 4 -1 8 -1 10 -2
16 -5 67 -2 67 4 0 4 9 3 19 -3 14 -7 22 -7 26 0 4 6 11 7 17 4 15 -10 69 -11
74 -2 3 4 12 4 21 1 11 -4 14 -3 9 5 -5 8 -2 10 8 6 9 -3 13 -11 10 -18 -3 -6
0 -4 8 4 7 8 24 14 37 12 16 -3 21 0 16 9 -5 8 -4 10 4 5 23 -14 60 -13 66 2
4 11 8 12 20 2 10 -9 15 -9 15 -1 0 6 5 11 11 11 5 0 7 -6 3 -12 -6 -9 -3 -9
9 0 9 8 22 10 28 6 8 -5 9 -3 4 6 -6 10 -3 12 13 8 14 -4 20 -2 15 5 -4 6 0 8
10 4 9 -3 19 -2 22 3 3 5 13 6 22 3 9 -4 14 -2 10 3 -3 6 14 16 39 23 24 7 44
17 44 23 0 5 5 6 10 3 6 -3 13 0 16 9 3 8 14 13 25 11 10 -2 18 1 16 8 -1 6 4
12 11 13 6 1 17 2 22 3 6 0 9 7 8 14 -2 7 6 12 19 11 15 -1 20 3 15 14 -4 11
-1 14 11 9 9 -3 16 -3 16 1 -3 20 2 33 11 27 6 -3 10 -1 10 5 0 7 6 10 14 7
10 -4 12 0 9 14 -4 14 -1 18 9 14 10 -4 17 1 21 15 4 14 10 19 18 14 8 -4 10
-3 5 4 -4 7 -2 12 4 12 7 0 10 6 7 14 -4 10 0 14 12 11 10 -2 18 2 18 8 -1 33
4 47 17 47 8 0 18 4 21 10 3 6 -1 7 -12 4 -13 -4 -13 -2 3 8 12 7 19 19 16 27
-3 8 0 11 7 7 10 -6 13 -1 10 20 0 3 8 12 18 20 11 8 13 13 5 14 -10 0 -10 3
0 14 7 8 18 11 23 8 6 -3 3 3 -5 13 -12 15 -12 17 -1 10 11 -6 13 -3 9 13 -4
15 -2 19 8 15 10 -4 12 0 8 11 -4 10 -1 16 7 16 11 0 11 3 -1 10 -12 8 -12 10
-1 10 8 0 11 7 8 20 -3 11 -1 18 4 14 5 -3 9 0 9 5 0 20 2 26 11 37 5 6 7 20
4 33 -2 12 0 19 4 16 5 -2 9 6 9 19 0 19 -5 23 -20 21 -10 -2 -21 2 -24 10 -3
7 -12 11 -19 9 -7 -3 -16 -1 -19 5 -4 6 -13 8 -20 5 -8 -3 -17 0 -22 7 -5 8
-3 10 6 4 9 -5 11 -4 6 3 -5 9 -13 9 -27 2 -13 -7 -19 -7 -19 0 0 5 -3 9 -7 9
-5 -1 -11 0 -15 1 -17 5 -29 8 -49 9 -11 0 -18 5 -15 10 4 5 -3 7 -14 4 -12
-3 -20 0 -20 7 0 9 -4 9 -17 -1 -11 -10 -14 -10 -9 -1 5 8 1 12 -11 12 -10 0
-27 6 -38 13 -11 7 -30 12 -42 11 -13 -1 -23 4 -23 10 0 6 -4 5 -9 -2 -6 -11
-10 -10 -15 3 -3 10 -12 15 -21 11 -8 -3 -17 0 -21 6 -4 7 -9 6 -15 -3 -7 -11
-9 -10 -9 4 0 9 -5 17 -11 17 -5 0 -7 -6 -3 -12 6 -10 5 -10 -8 -1 -8 7 -18
10 -21 6 -4 -3 -7 0 -7 7 0 7 -3 10 -7 7 -3 -4 -11 -3 -17 2 -7 5 -19 1 -31
-12 -11 -11 -14 -17 -7 -13 6 4 12 2 12 -3 0 -6 -5 -11 -11 -11 -5 0 -7 -4 -4
-10 3 -5 2 -10 -3 -10 -6 0 -8 -10 -4 -22 3 -14 1 -19 -6 -14 -8 5 -10 2 -6
-8 3 -9 2 -16 -4 -16 -5 0 -9 -6 -8 -12 1 -19 -27 -88 -37 -88 -4 0 -5 5 -1
12 4 7 3 8 -4 4 -9 -5 -9 -13 -2 -26 7 -13 7 -21 -2 -26 -7 -5 -8 -3 -3 6 6 9
4 11 -4 6 -7 -5 -10 -15 -6 -24 3 -9 3 -13 -1 -10 -8 8 -34 -14 -27 -24 4 -8
-12 -12 -30 -9 -5 1 -6 -3 -2 -9 3 -5 -4 -20 -16 -32 -12 -13 -19 -17 -15 -10
4 6 3 12 -2 12 -6 0 -12 -7 -16 -15 -3 -8 -14 -15 -25 -15 -10 0 -22 -7 -25
-16 -3 -8 -10 -12 -16 -9 -5 3 -10 0 -10 -7 0 -10 -2 -10 -9 1 -6 9 -11 10
-15 2 -4 -6 -12 -9 -17 -6 -5 4 -9 1 -9 -5 0 -7 -7 -10 -15 -6 -8 3 -15 0 -15
-7 0 -7 -3 -8 -8 -2 -8 12 -92 14 -92 2 0 -4 -9 -3 -19 3 -14 7 -21 6 -24 -3
-4 -9 -6 -8 -6 2 -1 11 -4 11 -16 1 -11 -9 -15 -9 -15 -1 0 7 -8 11 -17 9 -11
-2 -17 2 -15 11 3 12 0 12 -12 1 -9 -7 -16 -8 -16 -3 0 5 -10 9 -22 10 -11 1
-25 8 -29 15 -5 7 -9 9 -9 5 0 -5 -7 -1 -16 7 -8 9 -20 14 -25 11 -5 -4 -9 -2
-9 4 0 5 -9 13 -20 16 -11 3 -20 13 -20 22 0 9 -6 13 -15 9 -10 -4 -15 -1 -13
9 2 7 -6 21 -17 30 -11 9 -13 13 -5 9 13 -7 13 -5 1 9 -7 9 -17 15 -21 12 -4
-2 -6 7 -4 21 2 20 -1 24 -13 20 -13 -5 -14 -4 -4 8 8 10 9 15 1 18 -6 2 -12
13 -13 26 0 12 -5 22 -9 22 -4 0 -5 6 -2 14 3 8 1 17 -4 20 -5 3 -8 17 -7 31
2 14 -2 25 -8 25 -7 0 -5 5 3 10 10 6 11 10 3 10 -7 0 -12 10 -12 23 0 12 -2
35 -5 50 -5 20 -3 26 5 22 8 -6 8 -2 0 14 -7 11 -8 21 -4 21 4 0 1 5 -7 10 -8
5 -10 10 -5 10 7 0 11 49 10 135 0 74 3 135 8 135 4 0 7 5 7 11 0 5 -6 7 -12
3 -7 -4 -5 2 5 13 13 15 15 23 7 28 -9 6 -9 10 1 16 8 4 12 22 11 43 -2 20 2
36 7 36 5 0 8 9 6 20 -2 11 -1 18 4 16 4 -3 12 4 19 14 8 14 9 21 0 26 -7 4
-2 14 13 26 13 11 18 16 10 12 -10 -5 -12 -3 -7 5 5 7 15 10 23 6 13 -4 14 -3
4 9 -10 12 -8 16 8 21 12 3 21 11 21 16 0 6 -5 7 -12 3 -7 -5 -8 -3 -4 5 5 7
15 10 23 7 8 -3 11 -1 8 4 -3 6 -1 10 5 10 6 0 8 5 5 10 -3 6 1 10 9 10 9 0
16 5 16 11 0 5 5 7 10 4 6 -3 10 -1 10 5 0 6 5 8 13 4 7 -5 6 0 -3 11 -10 12
-10 16 -2 11 7 -4 24 0 39 9 21 14 27 15 34 4 7 -11 9 -10 9 4 0 11 8 17 25
17 14 0 25 5 25 10 0 6 5 10 11 10 5 0 7 -6 3 -12 -5 -9 -2 -9 9 1 9 7 17 10
17 7 0 -4 9 -2 19 4 14 7 22 7 26 0 5 -8 11 -8 20 0 10 8 15 8 20 0 5 -8 11
-8 19 -1 7 6 16 8 20 4 6 -6 30 -10 84 -15 6 -1 12 -5 12 -10 0 -5 4 -7 9 -4
4 3 16 -1 27 -8 10 -8 25 -11 33 -8 8 3 12 1 8 -4 -3 -6 3 -16 15 -23 11 -7
17 -8 13 -2 -3 6 -1 11 4 11 11 0 15 -15 11 -35 -1 -5 2 -7 5 -3 4 4 20 -6 35
-22 15 -16 30 -26 34 -23 3 3 6 -1 6 -10 0 -10 5 -17 11 -17 5 0 7 -4 4 -10
-3 -5 -1 -10 6 -10 7 0 10 -3 6 -6 -3 -4 1 -13 9 -21 8 -9 13 -21 10 -28 -3
-8 2 -16 11 -19 8 -4 13 -13 10 -20 -3 -8 1 -20 10 -28 13 -11 17 -11 21 0 3
10 7 10 20 0 9 -8 13 -8 9 -2 -4 7 0 14 8 18 8 3 15 1 15 -4 0 -5 7 -7 15 -4
8 4 12 11 8 18 -4 6 1 5 10 -3 11 -9 17 -9 17 -2 0 6 10 11 23 11 41 0 57 3
57 13 0 5 9 7 20 4 11 -3 23 -1 26 4 3 6 11 5 20 -2 11 -9 15 -8 20 6 5 13 9
14 15 3 6 -8 9 -9 9 -1 0 6 11 10 26 8 15 -1 28 3 31 12 5 12 7 12 14 1 7 -10
9 -11 9 0 0 7 5 10 10 7 6 -3 10 0 10 7 0 10 3 9 9 -1 7 -12 13 -12 24 -3 7 7
17 9 20 5 4 -3 7 -1 7 5 0 6 7 9 17 5 11 -5 14 -3 8 6 -6 10 -3 11 15 1 18 -9
24 -9 30 0 4 7 13 9 20 5 9 -5 11 -4 6 3 -10 16 7 15 23 0 10 -11 11 -9 5 6
-5 13 -4 17 3 13 6 -4 13 0 17 8 3 8 0 14 -7 12 -7 -1 -12 9 -11 25 0 15 -4
25 -8 22 -7 -5 -13 19 -9 39 1 5 -3 6 -9 2 -9 -5 -15 15 -11 38 0 4 -4 7 -10
7 -6 0 -8 7 -5 16 4 10 2 13 -6 8 -8 -5 -9 -2 -5 9 4 11 1 17 -9 17 -9 0 -14
6 -11 13 2 6 -3 18 -12 25 -9 8 -10 10 -3 7 11 -6 11 -3 1 13 -7 12 -17 18
-23 15 -5 -4 -7 3 -4 15 4 13 2 20 -4 16 -5 -3 -12 4 -15 16 -4 17 -8 19 -15
8 -7 -9 -8 -7 -5 10 3 12 1 20 -4 16 -5 -3 -9 0 -9 6 0 16 -147 160 -154 152
-3 -3 -6 0 -6 6 0 7 -7 12 -16 12 -10 0 -14 6 -11 14 4 10 0 12 -14 9 -11 -3
-19 0 -19 8 0 7 -3 10 -6 6 -3 -3 -14 3 -25 14 -10 10 -28 19 -39 19 -11 0
-20 4 -20 9 0 5 -8 8 -17 7 -10 0 -17 4 -16 11 2 8 -8 11 -27 8 -17 -2 -30 1
-30 6 0 6 -4 7 -10 4 -5 -3 -10 -1 -10 6 0 8 -5 7 -17 -2 -9 -8 -14 -9 -11 -4
4 6 3 17 -3 25 -7 12 -9 11 -9 -5 0 -12 -3 -16 -8 -9 -9 16 -43 21 -61 10 -10
-6 -12 -5 -7 2 4 7 1 12 -8 12 -9 0 -16 5 -16 11 0 8 -5 8 -15 -1 -12 -10 -15
-10 -15 0 0 10 -3 10 -15 0 -11 -9 -15 -9 -15 -1 0 7 -4 10 -9 6 -5 -3 -12 -1
-16 4 -4 7 -15 7 -31 1 -14 -6 -23 -6 -20 -1 3 5 -11 8 -32 7 -20 -2 -43 2
-49 7 -7 5 -13 6 -13 1 0 -11 -154 -9 -171 2 -8 4 -9 3 -5 -4z m-614 -217 c-7
-9 -15 -13 -19 -10 -3 3 1 10 9 15 21 14 24 12 10 -5z"/>
<path d="M3640 3629 c0 -5 5 -7 10 -4 6 3 10 8 10 11 0 2 -4 4 -10 4 -5 0 -10
-5 -10 -11z"/>
<path d="M474 3378 l-19 -23 23 19 c21 18 27 26 19 26 -2 0 -12 -10 -23 -22z"/>
</g>
</svg>
